<svg width="1151" height="267" viewBox="0 0 1151 267" fill="none" xmlns="http://www.w3.org/2000/svg">
<path d="M512.74 208L481.24 72.76H503.71L526.6 174.19L552.22 89.14V72.76H570.91L599.68 174.19L622.99 72.76H645.25L613.96 208H591.49L564.4 113.29L535.63 208H512.74ZM660.367 208V108.46H681.367L682.627 120.01C687.387 116.93 693.057 114.13 699.637 111.61C706.217 109.09 712.727 107.34 719.167 106.36V123.79C715.247 124.49 710.977 125.54 706.357 126.94C701.877 128.2 697.607 129.67 693.547 131.35C689.487 132.89 686.057 134.5 683.257 136.18V208H660.367ZM760.558 210.1C754.258 210.1 748.378 208.98 742.918 206.74C737.598 204.5 733.328 201.14 730.108 196.66C726.888 192.04 725.278 186.37 725.278 179.65C725.278 170.13 728.498 162.5 734.938 156.76C741.518 150.88 751.598 147.94 765.178 147.94H797.098V143.53C797.098 138.77 796.328 134.99 794.788 132.19C793.388 129.39 790.728 127.36 786.808 126.1C783.028 124.84 777.428 124.21 770.008 124.21C758.248 124.21 747.258 125.96 737.038 129.46V112.45C741.518 110.63 746.978 109.16 753.418 108.04C759.858 106.92 766.788 106.36 774.208 106.36C788.768 106.36 799.828 109.3 807.388 115.18C815.088 121.06 818.938 130.65 818.938 143.95V208H799.408L797.938 197.92C793.878 201.84 788.838 204.85 782.818 206.95C776.938 209.05 769.518 210.1 760.558 210.1ZM766.648 193.72C773.508 193.72 779.458 192.6 784.498 190.36C789.678 187.98 793.878 184.83 797.098 180.91V163.48H765.598C758.878 163.48 753.978 164.81 750.898 167.47C747.958 169.99 746.488 173.91 746.488 179.23C746.488 184.41 748.238 188.12 751.738 190.36C755.238 192.6 760.208 193.72 766.648 193.72ZM844.322 253.36V108.46H864.062L865.322 118.33C869.802 114.27 874.702 111.26 880.022 109.3C885.342 107.34 891.642 106.36 898.922 106.36C913.202 106.36 924.332 110.28 932.312 118.12C940.292 125.82 944.282 138.63 944.282 156.55C944.282 174.47 940.152 187.91 931.892 196.87C923.632 205.69 912.362 210.1 898.082 210.1C886.042 210.1 875.752 207.3 867.212 201.7V253.36H844.322ZM892.202 192.88C911.522 192.88 921.182 180.7 921.182 156.34C921.182 144.58 919.012 136.25 914.672 131.35C910.332 126.31 903.052 123.79 892.832 123.79C882.612 123.79 874.072 127.29 867.212 134.29V184.06C870.432 186.72 874.002 188.89 877.922 190.57C881.982 192.11 886.742 192.88 892.202 192.88ZM970.847 87.67V68.77H995.837V87.67H970.847ZM972.737 208V125.89H957.617L959.717 108.46H995.627V208H972.737Z" fill="#7E46FF"/>
<path d="M78 40.25C78 22.9911 91.9911 9 109.25 9H171.75C189.009 9 203 22.9911 203 40.25V101.62C203.001 101.995 203.002 102.372 203.002 102.75C203.002 119.984 216.953 133.96 234.178 134C234.202 134 234.226 134 234.25 134H296.75C314.009 134 328 147.991 328 165.25V227.75C328 245.009 314.009 259 296.75 259H234.25C216.991 259 203 245.009 203 227.75V165.25C203 165.163 203 165.077 203.001 164.99C202.861 147.851 188.924 134 171.752 134C171.671 134 171.591 134 171.51 134H109.25C91.9911 134 78 120.009 78 102.75V40.25Z" fill="#7E46FF"/>
</svg>
